<svg width="2000px" height="1133px"
 viewBox="0.00 0.00 953.14 540.37" xmlns="http://www.w3.org/2000/svg" xmlns:xlink="http://www.w3.org/1999/xlink">
<g id="graph0" class="graph" transform="scale(1.0 1.0) rotate(0) translate(4 536.37)">
<title>ContextMapGraph</title>
<polygon fill="white" stroke="transparent" points="-4,4 -4,-536.37 949.14,-536.37 949.14,4 -4,4"/>
<!-- CompaniesContext -->
<g id="node1" class="node">
<title>CompaniesContext</title>
<polygon fill="none" stroke="black" stroke-width="2" points="923.7,-345.48 922.3,-348.33 920.52,-351.14 918.38,-353.91 915.87,-356.61 913.01,-359.24 909.8,-361.79 906.26,-364.24 902.39,-366.6 898.21,-368.84 893.73,-370.97 888.95,-372.97 883.91,-374.84 878.59,-376.57 873.03,-378.15 867.24,-379.59 861.23,-380.88 855.02,-382.01 848.63,-382.98 842.07,-383.8 835.37,-384.46 828.53,-384.97 821.58,-385.31 814.53,-385.51 807.41,-385.55 800.23,-385.45 793.01,-385.2 785.77,-384.82 778.54,-384.29 771.32,-383.65 764.14,-382.87 757.01,-381.98 749.96,-380.98 743,-379.88 736.16,-378.68 729.44,-377.39 722.88,-376.02 716.47,-374.57 710.25,-373.04 704.23,-371.46 698.42,-369.82 692.84,-368.12 687.5,-366.38 682.42,-364.6 677.62,-362.79 673.1,-360.95 668.89,-359.08 664.98,-357.19 661.39,-355.29 658.14,-353.37 655.22,-351.44 652.66,-349.51 650.45,-347.57 648.61,-345.63 647.13,-343.69 646.04,-341.75 645.31,-339.82 644.97,-337.89 645.02,-335.97 645.44,-334.05 646.25,-332.15 647.44,-330.25 649.02,-328.37 650.96,-326.5 653.28,-324.64 655.97,-322.8 659.01,-320.97 662.41,-319.17 666.15,-317.39 670.22,-315.63 674.61,-313.9 679.32,-312.21 684.33,-310.54 689.61,-308.91 695.17,-307.33 700.99,-305.79 707.04,-304.3 713.32,-302.87 719.8,-301.49 726.47,-300.19 733.3,-298.95 740.29,-297.8 747.4,-296.72 754.62,-295.74 761.93,-294.85 769.31,-294.06 776.73,-293.38 784.18,-292.81 791.64,-292.36 799.07,-292.03 806.47,-291.83 813.81,-291.77 821.07,-291.84 828.22,-292.05 835.25,-292.4 842.15,-292.9 848.88,-293.55 855.42,-294.35 861.77,-295.3 867.91,-296.39 873.8,-297.64 879.45,-299.03 884.83,-300.57 889.93,-302.24 894.73,-304.06 899.23,-306 903.4,-308.07 907.24,-310.26 910.74,-312.56 913.89,-314.97 916.67,-317.47 919.09,-320.06 921.14,-322.72 922.8,-325.45 924.09,-328.24 924.99,-331.07 925.51,-333.93 925.63,-336.82 925.37,-339.71 924.73,-342.6 923.7,-345.48"/>
<text text-anchor="middle" x="785.14" y="-334.28" font-family="sans-serif" font-size="16.00">CompaniesContext</text>
</g>
<!-- TransactionsAnalyticsContext -->
<g id="node2" class="node">
<title>TransactionsAnalyticsContext</title>
<polygon fill="none" stroke="black" stroke-width="2" points="526.51,-14.06 536.47,-12.21 546.72,-10.45 557.22,-8.82 567.93,-7.3 578.81,-5.9 589.81,-4.64 600.89,-3.52 612.03,-2.55 623.17,-1.72 634.29,-1.04 645.35,-0.51 656.3,-0.14 667.13,0.07 677.8,0.12 688.27,0.01 698.53,-0.26 708.54,-0.68 718.29,-1.26 727.75,-2 736.91,-2.88 745.73,-3.9 754.22,-5.07 762.35,-6.37 770.12,-7.8 777.51,-9.36 784.52,-11.03 791.13,-12.81 797.34,-14.69 803.16,-16.66 808.57,-18.72 813.57,-20.85 818.16,-23.05 822.35,-25.31 826.13,-27.62 829.5,-29.98 832.47,-32.36 835.03,-34.77 837.18,-37.19 838.94,-39.63 840.3,-42.06 841.25,-44.48 841.81,-46.88 841.98,-49.27 841.75,-51.62 841.13,-53.93 840.11,-56.21 838.7,-58.43 836.89,-60.6 834.69,-62.72 832.1,-64.77 829.11,-66.75 825.72,-68.66 821.94,-70.5 817.76,-72.27 813.19,-73.95 808.23,-75.55 802.87,-77.08 797.12,-78.52 790.98,-79.87 784.45,-81.14 777.55,-82.32 770.28,-83.41 762.64,-84.42 754.64,-85.34 746.3,-86.18 737.63,-86.92 728.63,-87.58 719.34,-88.16 709.76,-88.64 699.91,-89.04 689.83,-89.35 679.52,-89.57 669.02,-89.71 658.36,-89.76 647.55,-89.73 636.64,-89.6 625.66,-89.39 614.64,-89.09 603.61,-88.71 592.62,-88.23 581.7,-87.67 570.88,-87.01 560.22,-86.27 549.74,-85.43 539.49,-84.51 529.51,-83.5 519.83,-82.39 510.5,-81.2 501.56,-79.92 493.04,-78.55 484.97,-77.09 477.4,-75.55 470.35,-73.92 463.86,-72.2 457.96,-70.41 452.67,-68.54 448.01,-66.59 444.01,-64.57 440.69,-62.49 438.06,-60.34 436.14,-58.13 434.93,-55.86 434.43,-53.55 434.66,-51.2 435.61,-48.81 437.28,-46.4 439.66,-43.96 442.74,-41.51 446.51,-39.05 450.94,-36.59 456.02,-34.15 461.74,-31.72 468.05,-29.32 474.94,-26.96 482.37,-24.65 490.31,-22.39 498.74,-20.19 507.6,-18.06 516.87,-16.02 526.51,-14.06"/>
<text text-anchor="middle" x="653.14" y="-44.32" font-family="sans-serif" font-size="16.00">TransactionsAnalyticsContext</text>
</g>
<!-- CompaniesContext&#45;&gt;TransactionsAnalyticsContext -->
<g id="edge1" class="edge">
<title>CompaniesContext&#45;&gt;TransactionsAnalyticsContext</title>
<path fill="none" stroke="black" stroke-width="2" d="M792.08,-292C796.08,-250.94 796.05,-190.07 770.14,-145.23 757.25,-122.93 737.09,-103.61 717.1,-88.27"/>
<text text-anchor="middle" x="869.64" y="-190.25" font-family="sans-serif" font-size="12.00"> &#160;&#160;&#160;&#160;&#160;&#160;&#160;&#160;&#160;&#160;&#160;&#160;&#160;&#160;&#160;&#160;&#160;&#160;&#160;&#160;&#160;&#160;&#160;&#160;&#160;&#160;&#160;&#160;&#160;&#160;&#160;&#160;&#160;&#160;&#160;&#160;&#160;&#160;&#160;</text>
<polygon fill="white" stroke="transparent" points="694.1,-78.27 694.1,-97.27 710.1,-97.27 710.1,-78.27 694.1,-78.27"/>
<polyline fill="none" stroke="black" points="710.1,-78.27 710.1,-97.27 "/>
<text text-anchor="start" x="697.1" y="-84.67" font-family="sans-serif" font-size="12.00">D</text>
<polygon fill="white" stroke="transparent" points="710.1,-78.27 710.1,-97.27 740.1,-97.27 740.1,-78.27 710.1,-78.27"/>
<polygon fill="none" stroke="black" points="710.1,-78.27 710.1,-97.27 740.1,-97.27 740.1,-78.27 710.1,-78.27"/>
<text text-anchor="start" x="713.1" y="-84.67" font-family="sans-serif" font-size="12.00">ACL</text>
<polygon fill="white" stroke="transparent" points="785.08,-283 785.08,-300 799.08,-300 799.08,-283 785.08,-283"/>
<text text-anchor="start" x="787.08" y="-288.4" font-family="sans-serif" font-size="12.00">U</text>
</g>
<!-- TransactionsContext -->
<g id="node3" class="node">
<title>TransactionsContext</title>
<polygon fill="none" stroke="black" stroke-width="2" points="511.56,-227.4 504.21,-229.26 496.65,-231.01 488.9,-232.65 481,-234.17 472.98,-235.56 464.86,-236.82 456.68,-237.94 448.47,-238.92 440.25,-239.75 432.05,-240.43 423.89,-240.96 415.81,-241.32 407.82,-241.53 399.95,-241.58 392.22,-241.48 384.66,-241.21 377.27,-240.78 370.08,-240.2 363.1,-239.47 356.34,-238.59 349.83,-237.56 343.57,-236.4 337.57,-235.09 331.84,-233.66 326.39,-232.11 321.22,-230.44 316.34,-228.66 311.76,-226.78 307.47,-224.81 303.48,-222.75 299.79,-220.62 296.4,-218.41 293.31,-216.15 290.52,-213.84 288.03,-211.49 285.85,-209.11 283.96,-206.7 282.37,-204.27 281.07,-201.84 280.07,-199.41 279.36,-196.99 278.95,-194.58 278.83,-192.2 279,-189.85 279.46,-187.53 280.21,-185.26 281.25,-183.04 282.58,-180.86 284.21,-178.75 286.12,-176.7 288.33,-174.72 290.82,-172.81 293.61,-170.97 296.69,-169.2 300.06,-167.52 303.73,-165.91 307.68,-164.39 311.93,-162.95 316.45,-161.6 321.27,-160.33 326.36,-159.15 331.73,-158.05 337.36,-157.04 343.26,-156.12 349.42,-155.29 355.81,-154.54 362.45,-153.88 369.31,-153.31 376.37,-152.83 383.63,-152.43 391.08,-152.12 398.68,-151.89 406.42,-151.75 414.29,-151.7 422.26,-151.74 430.31,-151.86 438.41,-152.08 446.54,-152.37 454.68,-152.76 462.79,-153.24 470.85,-153.8 478.82,-154.46 486.69,-155.2 494.42,-156.03 501.98,-156.96 509.35,-157.97 516.49,-159.07 523.37,-160.27 529.97,-161.55 536.26,-162.92 542.21,-164.38 547.79,-165.92 552.99,-167.55 557.78,-169.26 562.13,-171.06 566.04,-172.93 569.47,-174.88 572.42,-176.9 574.87,-178.98 576.81,-181.13 578.23,-183.34 579.13,-185.6 579.49,-187.91 579.32,-190.27 578.62,-192.65 577.39,-195.07 575.63,-197.51 573.36,-199.96 570.58,-202.42 567.31,-204.87 563.56,-207.32 559.35,-209.74 554.69,-212.14 549.61,-214.5 544.12,-216.82 538.26,-219.08 532.05,-221.28 525.51,-223.4 518.67,-225.45 511.56,-227.4"/>
<text text-anchor="middle" x="418.14" y="-189.55" font-family="sans-serif" font-size="16.00">TransactionsContext</text>
</g>
<!-- CompaniesContext&#45;&gt;TransactionsContext -->
<g id="edge2" class="edge">
<title>CompaniesContext&#45;&gt;TransactionsContext</title>
<path fill="none" stroke="black" stroke-width="2" d="M709.88,-303.45C677.54,-289.35 639.19,-273.1 604.14,-259.47 575.28,-248.24 543.58,-236.82 514.66,-226.74"/>
<text text-anchor="middle" x="709.64" y="-262.87" font-family="sans-serif" font-size="12.00"> &#160;&#160;&#160;&#160;&#160;&#160;&#160;&#160;&#160;&#160;&#160;&#160;&#160;&#160;&#160;&#160;&#160;&#160;&#160;&#160;&#160;&#160;&#160;&#160;&#160;&#160;&#160;&#160;&#160;&#160;&#160;&#160;&#160;&#160;&#160;&#160;&#160;&#160;&#160;</text>
<polygon fill="white" stroke="transparent" points="507.66,-217.74 507.66,-234.74 521.66,-234.74 521.66,-217.74 507.66,-217.74"/>
<text text-anchor="start" x="509.66" y="-223.14" font-family="sans-serif" font-size="12.00">D</text>
<polygon fill="white" stroke="transparent" points="702.88,-294.45 702.88,-311.45 716.88,-311.45 716.88,-294.45 702.88,-294.45"/>
<text text-anchor="start" x="704.88" y="-299.85" font-family="sans-serif" font-size="12.00">U</text>
</g>
<!-- TransactionsContext&#45;&gt;TransactionsAnalyticsContext -->
<g id="edge3" class="edge">
<title>TransactionsContext&#45;&gt;TransactionsAnalyticsContext</title>
<path fill="none" stroke="black" stroke-width="2" d="M427.32,-151.76C432.14,-138.28 439.38,-124.18 450.14,-114.23 465.5,-100.04 483.96,-88.94 503.42,-80.25"/>
<text text-anchor="middle" x="525.64" y="-117.63" font-family="sans-serif" font-size="12.00"> &#160;&#160;&#160;&#160;&#160;&#160;&#160;&#160;&#160;&#160;&#160;&#160;&#160;&#160;&#160;&#160;&#160;&#160;&#160;&#160;&#160;&#160;&#160;&#160;&#160;&#160;&#160;&#160;&#160;&#160;&#160;&#160;&#160;&#160;&#160;&#160;&#160;&#160;&#160;</text>
<polygon fill="white" stroke="transparent" points="480.42,-70.25 480.42,-89.25 496.42,-89.25 496.42,-70.25 480.42,-70.25"/>
<polyline fill="none" stroke="black" points="496.42,-70.25 496.42,-89.25 "/>
<text text-anchor="start" x="483.42" y="-76.65" font-family="sans-serif" font-size="12.00">D</text>
<polygon fill="white" stroke="transparent" points="496.42,-70.25 496.42,-89.25 526.42,-89.25 526.42,-70.25 496.42,-70.25"/>
<polygon fill="none" stroke="black" points="496.42,-70.25 496.42,-89.25 526.42,-89.25 526.42,-70.25 496.42,-70.25"/>
<text text-anchor="start" x="499.42" y="-76.65" font-family="sans-serif" font-size="12.00">ACL</text>
<polygon fill="white" stroke="transparent" points="420.32,-142.76 420.32,-159.76 434.32,-159.76 434.32,-142.76 420.32,-142.76"/>
<text text-anchor="start" x="422.32" y="-148.16" font-family="sans-serif" font-size="12.00">U</text>
</g>
<!-- InformationSourcesContext -->
<g id="node4" class="node">
<title>InformationSourcesContext</title>
<polygon fill="none" stroke="black" stroke-width="2" points="107.16,-85.16 96.77,-83.65 86.72,-82.04 77.05,-80.34 67.81,-78.57 59.03,-76.72 50.75,-74.8 43,-72.83 35.83,-70.8 29.24,-68.72 23.27,-66.6 17.95,-64.44 13.29,-62.26 9.3,-60.06 6.01,-57.84 3.41,-55.61 1.52,-53.38 0.34,-51.15 -0.14,-48.93 0.08,-46.72 0.99,-44.53 2.59,-42.36 4.84,-40.23 7.75,-38.12 11.29,-36.05 15.43,-34.02 20.15,-32.04 25.43,-30.11 31.22,-28.22 37.52,-26.4 44.27,-24.63 51.44,-22.92 59.01,-21.28 66.94,-19.7 75.19,-18.2 83.72,-16.77 92.5,-15.41 101.5,-14.13 110.67,-12.93 119.99,-11.81 129.43,-10.78 138.94,-9.83 148.5,-8.97 158.09,-8.2 167.66,-7.52 177.21,-6.94 186.69,-6.45 196.09,-6.06 205.39,-5.76 214.57,-5.57 223.61,-5.48 232.49,-5.5 241.2,-5.62 249.73,-5.84 258.07,-6.17 266.21,-6.61 274.13,-7.15 281.84,-7.81 289.32,-8.57 296.57,-9.44 303.59,-10.41 310.37,-11.49 316.9,-12.68 323.19,-13.97 329.23,-15.36 335.02,-16.85 340.55,-18.44 345.82,-20.12 350.82,-21.89 355.56,-23.75 360.02,-25.69 364.2,-27.7 368.1,-29.79 371.69,-31.95 374.99,-34.17 377.97,-36.44 380.63,-38.77 382.96,-41.13 384.94,-43.54 386.57,-45.96 387.83,-48.41 388.71,-50.88 389.2,-53.34 389.29,-55.81 388.95,-58.26 388.19,-60.69 386.99,-63.1 385.33,-65.47 383.21,-67.79 380.62,-70.06 377.54,-72.27 373.98,-74.41 369.93,-76.47 365.38,-78.45 360.34,-80.34 354.8,-82.13 348.77,-83.82 342.24,-85.39 335.24,-86.85 327.77,-88.19 319.84,-89.41 311.47,-90.49 302.67,-91.44 293.48,-92.26 283.9,-92.94 273.97,-93.48 263.72,-93.87 253.18,-94.13 242.37,-94.24 231.35,-94.21 220.13,-94.04 208.78,-93.73 197.31,-93.28 185.79,-92.7 174.25,-91.98 162.73,-91.14 151.29,-90.17 139.97,-89.09 128.81,-87.89 117.86,-86.58 107.16,-85.16"/>
<text text-anchor="middle" x="208.14" y="-44.32" font-family="sans-serif" font-size="16.00">InformationSourcesContext</text>
</g>
<!-- TransactionsContext&#45;&gt;InformationSourcesContext -->
<g id="edge4" class="edge">
<title>TransactionsContext&#45;&gt;InformationSourcesContext</title>
<path fill="none" stroke="black" stroke-width="2" d="M317.76,-160.96C297.78,-151.99 277.84,-140.84 261.14,-127.23 250.09,-118.22 240.43,-106.32 232.49,-94.52"/>
<text text-anchor="middle" x="336.64" y="-117.63" font-family="sans-serif" font-size="12.00"> &#160;&#160;&#160;&#160;&#160;&#160;&#160;&#160;&#160;&#160;&#160;&#160;&#160;&#160;&#160;&#160;&#160;&#160;&#160;&#160;&#160;&#160;&#160;&#160;&#160;&#160;&#160;&#160;&#160;&#160;&#160;&#160;&#160;&#160;&#160;&#160;&#160;&#160;&#160;</text>
<polygon fill="white" stroke="transparent" points="209.49,-84.52 209.49,-103.52 225.49,-103.52 225.49,-84.52 209.49,-84.52"/>
<polyline fill="none" stroke="black" points="225.49,-84.52 225.49,-103.52 "/>
<text text-anchor="start" x="212.49" y="-90.92" font-family="sans-serif" font-size="12.00">D</text>
<polygon fill="white" stroke="transparent" points="225.49,-84.52 225.49,-103.52 255.49,-103.52 255.49,-84.52 225.49,-84.52"/>
<polygon fill="none" stroke="black" points="225.49,-84.52 225.49,-103.52 255.49,-103.52 255.49,-84.52 225.49,-84.52"/>
<text text-anchor="start" x="228.49" y="-90.92" font-family="sans-serif" font-size="12.00">ACL</text>
<polygon fill="white" stroke="transparent" points="293.76,-150.96 293.76,-169.96 309.76,-169.96 309.76,-150.96 293.76,-150.96"/>
<polyline fill="none" stroke="black" points="309.76,-150.96 309.76,-169.96 "/>
<text text-anchor="start" x="296.76" y="-157.36" font-family="sans-serif" font-size="12.00">U</text>
<polygon fill="white" stroke="transparent" points="309.76,-150.96 309.76,-169.96 342.76,-169.96 342.76,-150.96 309.76,-150.96"/>
<polygon fill="none" stroke="black" points="309.76,-150.96 309.76,-169.96 342.76,-169.96 342.76,-150.96 309.76,-150.96"/>
<text text-anchor="start" x="312.76" y="-157.36" font-family="sans-serif" font-size="12.00">OHS</text>
</g>
<!-- FieldResearchContext -->
<g id="node5" class="node">
<title>FieldResearchContext</title>
<polygon fill="none" stroke="black" stroke-width="2" points="622.3,-469.74 625.64,-472.45 628.54,-475.17 631.01,-477.9 633.02,-480.64 634.57,-483.36 635.65,-486.06 636.25,-488.73 636.37,-491.35 635.99,-493.93 635.13,-496.45 633.78,-498.9 631.94,-501.27 629.62,-503.56 626.82,-505.77 623.55,-507.87 619.81,-509.88 615.63,-511.78 611.01,-513.56 605.97,-515.24 600.53,-516.8 594.7,-518.24 588.5,-519.56 581.96,-520.76 575.09,-521.84 567.93,-522.8 560.49,-523.64 552.8,-524.36 544.89,-524.96 536.79,-525.45 528.53,-525.83 520.12,-526.09 511.6,-526.25 503.01,-526.3 494.36,-526.25 485.69,-526.1 477.03,-525.86 468.4,-525.52 459.83,-525.1 451.35,-524.59 442.98,-524 434.76,-523.34 426.69,-522.59 418.82,-521.78 411.15,-520.89 403.71,-519.94 396.52,-518.92 389.6,-517.84 382.97,-516.7 376.64,-515.5 370.62,-514.23 364.94,-512.92 359.59,-511.54 354.6,-510.11 349.96,-508.63 345.7,-507.09 341.8,-505.5 338.29,-503.86 335.16,-502.17 332.42,-500.44 330.07,-498.65 328.1,-496.81 326.53,-494.94 325.34,-493.01 324.54,-491.05 324.12,-489.04 324.08,-487 324.41,-484.93 325.12,-482.82 326.19,-480.68 327.62,-478.53 329.4,-476.35 331.53,-474.16 334,-471.96 336.8,-469.76 339.93,-467.56 343.37,-465.38 347.12,-463.2 351.17,-461.05 355.51,-458.93 360.14,-456.85 365.03,-454.82 370.19,-452.84 375.6,-450.92 381.26,-449.07 387.14,-447.3 393.25,-445.62 399.57,-444.03 406.09,-442.55 412.79,-441.17 419.67,-439.92 426.7,-438.79 433.89,-437.79 441.21,-436.92 448.64,-436.21 456.18,-435.64 463.81,-435.22 471.5,-434.96 479.25,-434.86 487.03,-434.92 494.83,-435.15 502.62,-435.55 510.4,-436.1 518.13,-436.83 525.79,-437.71 533.38,-438.76 540.85,-439.96 548.21,-441.31 555.41,-442.82 562.44,-444.47 569.28,-446.25 575.9,-448.16 582.28,-450.19 588.41,-452.34 594.25,-454.59 599.8,-456.94 605.02,-459.37 609.9,-461.88 614.42,-464.45 618.56,-467.07 622.3,-469.74"/>
<text text-anchor="middle" x="475.14" y="-479.73" font-family="sans-serif" font-size="16.00">FieldResearchContext</text>
</g>
<!-- StatesContext -->
<g id="node6" class="node">
<title>StatesContext</title>
<polygon fill="none" stroke="black" stroke-width="2" points="555.25,-307.29 560.45,-309.32 565.39,-311.42 570.06,-313.58 574.43,-315.8 578.49,-318.07 582.22,-320.38 585.61,-322.72 588.63,-325.08 591.28,-327.45 593.54,-329.84 595.41,-332.22 596.88,-334.6 597.94,-336.96 598.59,-339.3 598.83,-341.61 598.66,-343.88 598.07,-346.12 597.08,-348.31 595.68,-350.46 593.9,-352.54 591.73,-354.57 589.18,-356.54 586.28,-358.44 583.03,-360.27 579.46,-362.03 575.57,-363.71 571.38,-365.32 566.92,-366.85 562.21,-368.3 557.25,-369.67 552.09,-370.95 546.74,-372.15 541.21,-373.27 535.54,-374.3 529.74,-375.25 523.84,-376.11 517.86,-376.88 511.82,-377.56 505.75,-378.16 499.65,-378.67 493.56,-379.09 487.49,-379.43 481.46,-379.67 475.49,-379.82 469.59,-379.89 463.78,-379.86 458.07,-379.75 452.48,-379.54 447.02,-379.24 441.7,-378.85 436.52,-378.37 431.51,-377.79 426.66,-377.12 421.99,-376.35 417.49,-375.5 413.18,-374.55 409.06,-373.5 405.14,-372.36 401.41,-371.13 397.87,-369.81 394.54,-368.4 391.41,-366.89 388.48,-365.3 385.75,-363.63 383.23,-361.87 380.92,-360.03 378.8,-358.11 376.9,-356.12 375.2,-354.05 373.71,-351.93 372.43,-349.74 371.36,-347.49 370.49,-345.2 369.84,-342.86 369.41,-340.48 369.19,-338.07 369.19,-335.64 369.41,-333.2 369.85,-330.74 370.52,-328.28 371.41,-325.83 372.54,-323.4 373.9,-320.99 375.5,-318.62 377.34,-316.29 379.42,-314 381.75,-311.78 384.31,-309.63 387.13,-307.55 390.18,-305.56 393.48,-303.66 397.03,-301.86 400.82,-300.17 404.84,-298.6 409.1,-297.14 413.58,-295.82 418.29,-294.63 423.21,-293.57 428.33,-292.66 433.65,-291.89 439.16,-291.28 444.83,-290.82 450.66,-290.51 456.64,-290.35 462.74,-290.35 468.94,-290.51 475.24,-290.82 481.6,-291.28 488.02,-291.89 494.46,-292.66 500.9,-293.56 507.33,-294.6 513.72,-295.78 520.04,-297.09 526.27,-298.52 532.39,-300.07 538.37,-301.73 544.19,-303.49 549.83,-305.35 555.25,-307.29"/>
<text text-anchor="middle" x="475.14" y="-334.28" font-family="sans-serif" font-size="16.00">StatesContext</text>
</g>
<!-- FieldResearchContext&#45;&gt;StatesContext -->
<g id="edge5" class="edge">
<title>FieldResearchContext&#45;&gt;StatesContext</title>
<path fill="none" stroke="black" stroke-width="2" d="M475.14,-434.77C475.14,-417 475.14,-397.01 475.14,-379.92"/>
<text text-anchor="middle" x="550.64" y="-407.1" font-family="sans-serif" font-size="12.00"> &#160;&#160;&#160;&#160;&#160;&#160;&#160;&#160;&#160;&#160;&#160;&#160;&#160;&#160;&#160;&#160;&#160;&#160;&#160;&#160;&#160;&#160;&#160;&#160;&#160;&#160;&#160;&#160;&#160;&#160;&#160;&#160;&#160;&#160;&#160;&#160;&#160;&#160;&#160;</text>
<polygon fill="white" stroke="transparent" points="468.14,-370.92 468.14,-387.92 482.14,-387.92 482.14,-370.92 468.14,-370.92"/>
<text text-anchor="start" x="470.14" y="-376.32" font-family="sans-serif" font-size="12.00">D</text>
<polygon fill="white" stroke="transparent" points="468.14,-425.77 468.14,-442.77 482.14,-442.77 482.14,-425.77 468.14,-425.77"/>
<text text-anchor="start" x="470.14" y="-431.17" font-family="sans-serif" font-size="12.00">U</text>
</g>
<!-- StatesContext&#45;&gt;TransactionsAnalyticsContext -->
<g id="edge7" class="edge">
<title>StatesContext&#45;&gt;TransactionsAnalyticsContext</title>
<path fill="none" stroke="black" stroke-width="2" d="M559.35,-308.63C575.53,-299.48 590.68,-287.65 601.14,-272.47 617.28,-249.04 608.3,-172.84 615.14,-145.23 619.76,-126.6 627.16,-106.75 634.2,-89.96"/>
<text text-anchor="middle" x="690.64" y="-190.25" font-family="sans-serif" font-size="12.00"> &#160;&#160;&#160;&#160;&#160;&#160;&#160;&#160;&#160;&#160;&#160;&#160;&#160;&#160;&#160;&#160;&#160;&#160;&#160;&#160;&#160;&#160;&#160;&#160;&#160;&#160;&#160;&#160;&#160;&#160;&#160;&#160;&#160;&#160;&#160;&#160;&#160;&#160;&#160;</text>
<polygon fill="white" stroke="transparent" points="611.2,-79.96 611.2,-98.96 627.2,-98.96 627.2,-79.96 611.2,-79.96"/>
<polyline fill="none" stroke="black" points="627.2,-79.96 627.2,-98.96 "/>
<text text-anchor="start" x="614.2" y="-86.36" font-family="sans-serif" font-size="12.00">D</text>
<polygon fill="white" stroke="transparent" points="627.2,-79.96 627.2,-98.96 657.2,-98.96 657.2,-79.96 627.2,-79.96"/>
<polygon fill="none" stroke="black" points="627.2,-79.96 627.2,-98.96 657.2,-98.96 657.2,-79.96 627.2,-79.96"/>
<text text-anchor="start" x="630.2" y="-86.36" font-family="sans-serif" font-size="12.00">ACL</text>
<polygon fill="white" stroke="transparent" points="552.35,-299.63 552.35,-316.63 566.35,-316.63 566.35,-299.63 552.35,-299.63"/>
<text text-anchor="start" x="554.35" y="-305.03" font-family="sans-serif" font-size="12.00">U</text>
</g>
<!-- StatesContext&#45;&gt;TransactionsContext -->
<g id="edge6" class="edge">
<title>StatesContext&#45;&gt;TransactionsContext</title>
<path fill="none" stroke="black" stroke-width="2" d="M456.48,-290.35C450.05,-274.25 442.86,-256.25 436.46,-240.22"/>
<text text-anchor="middle" x="524.64" y="-262.87" font-family="sans-serif" font-size="12.00"> &#160;&#160;&#160;&#160;&#160;&#160;&#160;&#160;&#160;&#160;&#160;&#160;&#160;&#160;&#160;&#160;&#160;&#160;&#160;&#160;&#160;&#160;&#160;&#160;&#160;&#160;&#160;&#160;&#160;&#160;&#160;&#160;&#160;&#160;&#160;&#160;&#160;&#160;&#160;</text>
<polygon fill="white" stroke="transparent" points="429.46,-231.22 429.46,-248.22 443.46,-248.22 443.46,-231.22 429.46,-231.22"/>
<text text-anchor="start" x="431.46" y="-236.62" font-family="sans-serif" font-size="12.00">D</text>
<polygon fill="white" stroke="transparent" points="449.48,-281.35 449.48,-298.35 463.48,-298.35 463.48,-281.35 449.48,-281.35"/>
<text text-anchor="start" x="451.48" y="-286.75" font-family="sans-serif" font-size="12.00">U</text>
</g>
</g>
</svg>
