<svg width="2000px" height="1342px"
 viewBox="0.00 0.00 1003.28 673.12" xmlns="http://www.w3.org/2000/svg" xmlns:xlink="http://www.w3.org/1999/xlink">
<g id="graph0" class="graph" transform="scale(1.0 1.0) rotate(0) translate(4 669.12)">
<title>ContextMapGraph</title>
<polygon fill="white" stroke="transparent" points="-4,4 -4,-669.12 999.28,-669.12 999.28,4 -4,4"/>
<!-- CompaniesContext -->
<g id="node1" class="node">
<title>CompaniesContext</title>
<polygon fill="none" stroke="black" stroke-width="2" points="166.9,-183.56 167.03,-180.68 167.54,-177.81 168.45,-174.98 169.73,-172.2 171.4,-169.47 173.44,-166.8 175.86,-164.22 178.65,-161.71 181.8,-159.31 185.29,-157.01 189.13,-154.82 193.31,-152.75 197.8,-150.8 202.6,-148.99 207.7,-147.31 213.08,-145.78 218.73,-144.38 224.63,-143.14 230.76,-142.04 237.11,-141.09 243.66,-140.3 250.39,-139.65 257.28,-139.15 264.31,-138.79 271.47,-138.58 278.73,-138.51 286.06,-138.58 293.46,-138.78 300.9,-139.1 308.35,-139.56 315.8,-140.12 323.23,-140.81 330.6,-141.59 337.91,-142.48 345.14,-143.47 352.25,-144.54 359.23,-145.7 366.07,-146.93 372.74,-148.24 379.22,-149.61 385.49,-151.05 391.55,-152.53 397.36,-154.07 402.92,-155.66 408.21,-157.29 413.21,-158.95 417.92,-160.65 422.32,-162.38 426.39,-164.14 430.13,-165.92 433.52,-167.72 436.57,-169.54 439.25,-171.38 441.57,-173.24 443.52,-175.11 445.09,-177 446.28,-178.89 447.09,-180.8 447.52,-182.71 447.56,-184.63 447.22,-186.56 446.5,-188.5 445.4,-190.44 443.93,-192.38 442.08,-194.32 439.88,-196.26 437.31,-198.19 434.4,-200.12 431.14,-202.03 427.56,-203.94 423.65,-205.83 419.43,-207.69 414.91,-209.54 410.11,-211.35 405.03,-213.13 399.7,-214.87 394.12,-216.56 388.31,-218.2 382.29,-219.79 376.06,-221.31 369.66,-222.76 363.09,-224.14 356.38,-225.43 349.53,-226.63 342.57,-227.73 335.52,-228.73 328.4,-229.62 321.22,-230.39 314,-231.04 306.76,-231.56 299.52,-231.95 292.31,-232.19 285.13,-232.3 278.01,-232.25 270.96,-232.06 264.01,-231.71 257.17,-231.21 250.46,-230.55 243.9,-229.73 237.51,-228.75 231.3,-227.62 225.29,-226.34 219.5,-224.9 213.94,-223.31 208.63,-221.59 203.58,-219.72 198.81,-217.72 194.32,-215.59 190.14,-213.35 186.27,-210.99 182.73,-208.53 179.53,-205.98 176.67,-203.35 174.16,-200.65 172.01,-197.89 170.23,-195.08 168.83,-192.22 167.8,-189.35 167.16,-186.46 166.9,-183.56"/>
<text text-anchor="middle" x="307.39" y="-181.03" font-family="sans-serif" font-size="16.00">CompaniesContext</text>
</g>
<!-- TransactionsAnalyticsContext -->
<g id="node2" class="node">
<title>TransactionsAnalyticsContext</title>
<polygon fill="none" stroke="black" stroke-width="2" points="327.03,-0.26 340.03,-0.5 352.9,-0.86 365.58,-1.34 378.02,-1.93 390.17,-2.64 401.99,-3.46 413.42,-4.39 424.43,-5.43 434.98,-6.57 445.01,-7.82 454.51,-9.16 463.44,-10.61 471.77,-12.14 479.47,-13.76 486.53,-15.46 492.93,-17.24 498.65,-19.09 503.68,-21.01 508.02,-22.99 511.67,-25.03 514.62,-27.12 516.88,-29.26 518.45,-31.44 519.36,-33.65 519.6,-35.89 519.2,-38.15 518.17,-40.42 516.54,-42.71 514.33,-45 511.56,-47.29 508.25,-49.56 504.44,-51.82 500.15,-54.06 495.42,-56.27 490.26,-58.45 484.71,-60.59 478.8,-62.68 472.55,-64.72 465.99,-66.7 459.16,-68.62 452.07,-70.47 444.75,-72.25 437.23,-73.96 429.53,-75.57 421.66,-77.11 413.65,-78.55 405.52,-79.89 397.29,-81.14 388.96,-82.28 380.55,-83.32 372.08,-84.25 363.55,-85.07 354.98,-85.78 346.37,-86.37 337.74,-86.85 329.08,-87.21 320.41,-87.45 311.73,-87.57 303.05,-87.57 294.37,-87.45 285.7,-87.21 277.05,-86.85 268.41,-86.37 259.81,-85.78 251.24,-85.07 242.71,-84.25 234.24,-83.32 225.83,-82.28 217.5,-81.14 209.26,-79.89 201.13,-78.55 193.13,-77.11 185.26,-75.57 177.56,-73.96 170.03,-72.25 162.72,-70.47 155.63,-68.62 148.79,-66.7 142.24,-64.72 135.99,-62.68 130.08,-60.59 124.53,-58.45 119.37,-56.27 114.63,-54.06 110.35,-51.82 106.54,-49.56 103.23,-47.29 100.46,-45 98.25,-42.71 96.62,-40.42 95.59,-38.15 95.19,-35.89 95.43,-33.65 96.33,-31.44 97.91,-29.26 100.17,-27.12 103.12,-25.03 106.76,-22.99 111.11,-21.01 116.14,-19.09 121.86,-17.24 128.26,-15.46 135.31,-13.76 143.02,-12.14 151.35,-10.61 160.27,-9.16 169.77,-7.82 179.81,-6.57 190.35,-5.43 201.36,-4.39 212.8,-3.46 224.62,-2.64 236.77,-1.93 249.21,-1.34 261.89,-0.86 274.76,-0.5 287.76,-0.26 300.84,-0.14 313.95,-0.14 327.03,-0.26"/>
<text text-anchor="middle" x="307.39" y="-40.06" font-family="sans-serif" font-size="16.00">TransactionsAnalyticsContext</text>
</g>
<!-- CompaniesContext&#45;&gt;TransactionsAnalyticsContext -->
<g id="edge1" class="edge">
<title>CompaniesContext&#45;&gt;TransactionsAnalyticsContext</title>
<path fill="none" stroke="black" stroke-width="2" d="M307.39,-139.47C307.39,-122.95 307.39,-104.24 307.39,-87.84"/>
<text text-anchor="middle" x="349.39" y="-109.11" font-family="sans-serif" font-size="12.00">Shared Kernel</text>
</g>
<!-- FieldResearchContext -->
<g id="node3" class="node">
<title>FieldResearchContext</title>
<polygon fill="none" stroke="black" stroke-width="2" points="0.32,-617.91 0.11,-615.04 0.32,-612.19 0.97,-609.36 2.04,-606.58 3.55,-603.85 5.48,-601.18 7.83,-598.58 10.59,-596.06 13.77,-593.64 17.34,-591.31 21.31,-589.09 25.66,-586.99 30.37,-585 35.45,-583.15 40.87,-581.43 46.61,-579.84 52.67,-578.4 59.02,-577.09 65.65,-575.94 72.53,-574.93 79.66,-574.06 87,-573.34 94.53,-572.77 102.25,-572.34 110.11,-572.05 118.11,-571.9 126.2,-571.89 134.39,-572.01 142.63,-572.25 150.9,-572.62 159.18,-573.1 167.45,-573.7 175.69,-574.4 183.86,-575.21 191.94,-576.11 199.92,-577.1 207.76,-578.17 215.45,-579.32 222.96,-580.55 230.28,-581.84 237.37,-583.2 244.23,-584.61 250.83,-586.08 257.16,-587.6 263.19,-589.16 268.91,-590.76 274.31,-592.39 279.37,-594.06 284.07,-595.77 288.41,-597.5 292.38,-599.25 295.96,-601.03 299.15,-602.83 301.93,-604.65 304.31,-606.49 306.27,-608.35 307.82,-610.22 308.94,-612.1 309.65,-614 309.93,-615.91 309.79,-617.84 309.24,-619.77 308.26,-621.7 306.87,-623.65 305.08,-625.6 302.88,-627.55 300.29,-629.5 297.31,-631.45 293.96,-633.39 290.24,-635.32 286.16,-637.24 281.74,-639.14 276.98,-641.02 271.91,-642.88 266.53,-644.7 260.86,-646.49 254.92,-648.23 248.71,-649.93 242.26,-651.57 235.59,-653.15 228.7,-654.66 221.63,-656.1 214.38,-657.46 206.98,-658.73 199.45,-659.9 191.79,-660.97 184.05,-661.93 176.22,-662.78 168.34,-663.5 160.43,-664.1 152.49,-664.56 144.56,-664.88 136.66,-665.07 128.8,-665.1 121.01,-664.98 113.3,-664.71 105.7,-664.29 98.22,-663.7 90.89,-662.96 83.72,-662.06 76.73,-661.01 69.95,-659.79 63.39,-658.43 57.06,-656.91 50.99,-655.25 45.2,-653.45 39.69,-651.51 34.48,-649.45 29.6,-647.26 25.04,-644.96 20.84,-642.56 16.99,-640.06 13.51,-637.48 10.42,-634.82 7.71,-632.09 5.4,-629.32 3.51,-626.5 2.02,-623.65 0.96,-620.78 0.32,-617.91"/>
<text text-anchor="middle" x="155.39" y="-613.83" font-family="sans-serif" font-size="16.00">FieldResearchContext</text>
</g>
<!-- StatesContext -->
<g id="node4" class="node">
<title>StatesContext</title>
<polygon fill="none" stroke="black" stroke-width="2" points="80.91,-506.93 75.36,-505.05 70.06,-503.09 65.02,-501.05 60.26,-498.96 55.8,-496.8 51.67,-494.6 47.88,-492.36 44.44,-490.08 41.38,-487.78 38.69,-485.46 36.4,-483.13 34.52,-480.8 33.04,-478.47 31.97,-476.16 31.33,-473.85 31.1,-471.57 31.29,-469.32 31.89,-467.11 32.9,-464.93 34.31,-462.79 36.12,-460.71 38.31,-458.67 40.86,-456.7 43.78,-454.78 47.04,-452.92 50.62,-451.13 54.51,-449.41 58.69,-447.76 63.14,-446.19 67.84,-444.68 72.76,-443.26 77.89,-441.91 83.21,-440.65 88.69,-439.46 94.3,-438.36 100.04,-437.34 105.87,-436.4 111.77,-435.55 117.73,-434.79 123.73,-434.11 129.73,-433.52 135.73,-433.02 141.7,-432.61 147.64,-432.29 153.51,-432.07 159.32,-431.93 165.03,-431.89 170.65,-431.95 176.15,-432.1 181.53,-432.34 186.78,-432.68 191.89,-433.12 196.84,-433.66 201.64,-434.29 206.28,-435.02 210.75,-435.86 215.05,-436.79 219.17,-437.82 223.11,-438.94 226.87,-440.17 230.45,-441.49 233.84,-442.9 237.05,-444.41 240.07,-446.01 242.9,-447.7 245.53,-449.47 247.98,-451.33 250.23,-453.27 252.3,-455.28 254.16,-457.37 255.83,-459.52 257.3,-461.73 258.57,-464 259.63,-466.32 260.49,-468.68 261.13,-471.08 261.57,-473.51 261.78,-475.96 261.78,-478.42 261.55,-480.89 261.09,-483.36 260.39,-485.83 259.46,-488.27 258.29,-490.68 256.87,-493.06 255.19,-495.4 253.27,-497.68 251.09,-499.9 248.65,-502.06 245.96,-504.13 243,-506.12 239.78,-508.01 236.3,-509.8 232.56,-511.49 228.57,-513.06 224.33,-514.5 219.85,-515.82 215.12,-517.01 210.17,-518.06 205,-518.97 199.61,-519.74 194.03,-520.36 188.27,-520.83 182.33,-521.14 176.25,-521.31 170.03,-521.33 163.69,-521.19 157.26,-520.9 150.75,-520.46 144.18,-519.88 137.59,-519.16 130.99,-518.29 124.41,-517.29 117.86,-516.16 111.39,-514.9 105.01,-513.52 98.74,-512.03 92.62,-510.43 86.67,-508.73 80.91,-506.93"/>
<text text-anchor="middle" x="155.39" y="-470.18" font-family="sans-serif" font-size="16.00">StatesContext</text>
</g>
<!-- FieldResearchContext&#45;&gt;StatesContext -->
<g id="edge2" class="edge">
<title>FieldResearchContext&#45;&gt;StatesContext</title>
<path fill="none" stroke="black" stroke-width="2" d="M155.39,-572.59C155.39,-556.18 155.39,-537.53 155.39,-520.95"/>
<text text-anchor="middle" x="197.39" y="-542.55" font-family="sans-serif" font-size="12.00">Shared Kernel</text>
</g>
<!-- StatesContext&#45;&gt;TransactionsAnalyticsContext -->
<g id="edge4" class="edge">
<title>StatesContext&#45;&gt;TransactionsAnalyticsContext</title>
<path fill="none" stroke="black" stroke-width="2" d="M143.91,-432.25C127.57,-365.58 105.11,-231.16 158.39,-136.71 171.68,-113.16 193.74,-94.88 216.86,-81.05"/>
<text text-anchor="middle" x="168.39" y="-254.35" font-family="sans-serif" font-size="12.00">Shared Kernel</text>
</g>
<!-- TransactionsContext -->
<g id="node5" class="node">
<title>TransactionsContext</title>
<polygon fill="none" stroke="black" stroke-width="2" points="495.8,-364.74 488.24,-366.52 480.47,-368.18 472.54,-369.73 464.46,-371.16 456.28,-372.47 448.02,-373.64 439.72,-374.67 431.39,-375.56 423.07,-376.3 414.8,-376.89 406.58,-377.33 398.46,-377.61 390.45,-377.73 382.58,-377.7 374.87,-377.51 367.33,-377.17 360,-376.67 352.88,-376.02 345.99,-375.22 339.34,-374.27 332.95,-373.18 326.83,-371.95 320.98,-370.59 315.42,-369.11 310.15,-367.51 305.18,-365.79 300.51,-363.97 296.15,-362.05 292.09,-360.04 288.34,-357.95 284.9,-355.79 281.77,-353.56 278.95,-351.28 276.43,-348.95 274.22,-346.58 272.31,-344.18 270.7,-341.77 269.4,-339.34 268.39,-336.9 267.67,-334.47 267.25,-332.05 267.11,-329.65 267.27,-327.28 267.71,-324.94 268.44,-322.64 269.46,-320.39 270.76,-318.18 272.35,-316.04 274.21,-313.95 276.37,-311.93 278.8,-309.98 281.52,-308.1 284.53,-306.3 287.81,-304.57 291.38,-302.93 295.23,-301.37 299.36,-299.9 303.77,-298.51 308.45,-297.21 313.41,-296 318.64,-294.87 324.13,-293.84 329.89,-292.89 335.89,-292.04 342.14,-291.27 348.62,-290.59 355.33,-290.01 362.25,-289.51 369.37,-289.1 376.68,-288.78 384.15,-288.55 391.78,-288.4 399.54,-288.34 407.41,-288.38 415.37,-288.49 423.4,-288.7 431.48,-289 439.57,-289.38 447.66,-289.85 455.71,-290.41 463.7,-291.05 471.6,-291.79 479.37,-292.61 487,-293.52 494.46,-294.52 501.7,-295.6 508.71,-296.77 515.45,-298.03 521.89,-299.38 528.02,-300.81 533.8,-302.32 539.2,-303.92 544.21,-305.59 548.79,-307.35 552.94,-309.18 556.62,-311.08 559.83,-313.06 562.54,-315.1 564.74,-317.2 566.43,-319.36 567.59,-321.57 568.22,-323.83 568.32,-326.14 567.87,-328.48 566.89,-330.85 565.38,-333.24 563.34,-335.65 560.78,-338.07 557.72,-340.48 554.16,-342.9 550.13,-345.29 545.63,-347.66 540.7,-350 535.34,-352.3 529.59,-354.55 523.47,-356.74 517,-358.86 510.21,-360.91 503.14,-362.87 495.8,-364.74"/>
<text text-anchor="middle" x="406.39" y="-326.07" font-family="sans-serif" font-size="16.00">TransactionsContext</text>
</g>
<!-- StatesContext&#45;&gt;TransactionsContext -->
<g id="edge3" class="edge">
<title>StatesContext&#45;&gt;TransactionsContext</title>
<path fill="none" stroke="black" stroke-width="2" d="M218.08,-437.49C252.5,-418 295.4,-393.71 331.56,-373.24"/>
<text text-anchor="middle" x="331.39" y="-399.2" font-family="sans-serif" font-size="12.00">Shared Kernel</text>
</g>
<!-- TransactionsContext&#45;&gt;CompaniesContext -->
<g id="edge5" class="edge">
<title>TransactionsContext&#45;&gt;CompaniesContext</title>
<path fill="none" stroke="black" stroke-width="2" d="M378.55,-288.65C365.63,-269.97 350.25,-247.75 337.1,-228.75"/>
<text text-anchor="middle" x="402.39" y="-254.35" font-family="sans-serif" font-size="12.00">Shared Kernel</text>
</g>
<!-- TransactionsContext&#45;&gt;TransactionsAnalyticsContext -->
<g id="edge7" class="edge">
<title>TransactionsContext&#45;&gt;TransactionsAnalyticsContext</title>
<path fill="none" stroke="black" stroke-width="2" d="M434.93,-289.13C439.91,-281.06 444.67,-272.43 448.39,-263.95 471.15,-212.06 484.01,-186.18 456.39,-136.71 443.28,-113.23 421.43,-95 398.45,-81.21"/>
<text text-anchor="middle" x="513.39" y="-181.73" font-family="sans-serif" font-size="12.00">Shared Kernel</text>
</g>
<!-- InformationSourcesContext -->
<g id="node6" class="node">
<title>InformationSourcesContext</title>
<polygon fill="none" stroke="black" stroke-width="2" points="645.83,-212.76 637.94,-210.56 630.51,-208.3 623.55,-205.98 617.1,-203.62 611.19,-201.22 605.84,-198.8 601.08,-196.35 596.93,-193.89 593.4,-191.44 590.52,-188.99 588.29,-186.55 586.73,-184.13 585.84,-181.74 585.62,-179.39 586.09,-177.08 587.22,-174.82 589.02,-172.61 591.48,-170.46 594.59,-168.37 598.34,-166.35 602.7,-164.41 607.65,-162.54 613.18,-160.74 619.25,-159.03 625.85,-157.4 632.94,-155.85 640.49,-154.4 648.47,-153.03 656.85,-151.74 665.58,-150.55 674.64,-149.45 683.99,-148.43 693.58,-147.51 703.39,-146.68 713.38,-145.93 723.5,-145.28 733.73,-144.72 744.02,-144.24 754.35,-143.85 764.67,-143.55 774.95,-143.34 785.16,-143.22 795.28,-143.18 805.26,-143.23 815.09,-143.37 824.74,-143.59 834.19,-143.91 843.4,-144.3 852.37,-144.79 861.07,-145.36 869.49,-146.02 877.61,-146.77 885.42,-147.6 892.91,-148.52 900.06,-149.53 906.88,-150.63 913.34,-151.81 919.45,-153.08 925.19,-154.43 930.58,-155.87 935.6,-157.39 940.25,-158.99 944.53,-160.68 948.44,-162.44 951.98,-164.28 955.14,-166.2 957.94,-168.18 960.37,-170.23 962.43,-172.34 964.12,-174.51 965.44,-176.74 966.4,-179.01 966.98,-181.33 967.2,-183.68 967.04,-186.06 966.52,-188.47 965.62,-190.89 964.35,-193.32 962.71,-195.75 960.69,-198.18 958.29,-200.58 955.51,-202.97 952.36,-205.32 948.82,-207.63 944.9,-209.89 940.6,-212.09 935.91,-214.23 930.85,-216.29 925.41,-218.26 919.59,-220.14 913.4,-221.92 906.84,-223.59 899.92,-225.14 892.65,-226.57 885.03,-227.87 877.09,-229.04 868.82,-230.07 860.25,-230.95 851.39,-231.68 842.27,-232.26 832.89,-232.69 823.29,-232.95 813.48,-233.06 803.49,-233.01 793.35,-232.8 783.1,-232.43 772.75,-231.91 762.34,-231.23 751.9,-230.4 741.48,-229.42 731.1,-228.3 720.8,-227.04 710.62,-225.65 700.59,-224.13 690.76,-222.49 681.16,-220.74 671.83,-218.88 662.81,-216.93 654.13,-214.88 645.83,-212.76"/>
<text text-anchor="middle" x="790.39" y="-181.03" font-family="sans-serif" font-size="16.00">InformationSourcesContext</text>
</g>
<!-- TransactionsContext&#45;&gt;InformationSourcesContext -->
<g id="edge6" class="edge">
<title>TransactionsContext&#45;&gt;InformationSourcesContext</title>
<path fill="none" stroke="black" stroke-width="2" d="M497.88,-294.79C556.23,-273.06 631.81,-244.9 691.53,-222.66"/>
<text text-anchor="middle" x="651.39" y="-254.35" font-family="sans-serif" font-size="12.00">Shared Kernel</text>
</g>
</g>
</svg>
